<svg width="40" height="40" viewBox="0 0 40 40" fill="none" xmlns="http://www.w3.org/2000/svg">
<rect width="40" height="40" rx="20" fill="white" fill-opacity="0.5"/>
<path d="M20.0001 21.8889H10.5556C10.0547 21.8889 9.57423 21.6899 9.21999 21.3357C8.86576 20.9814 8.66675 20.501 8.66675 20V10.5556C8.66675 10.0546 8.86576 9.57416 9.21999 9.21993C9.57423 8.86569 10.0547 8.66669 10.5556 8.66669H20.0001C20.501 8.66669 20.9815 8.86569 21.3357 9.21993C21.69 9.57416 21.889 10.0546 21.889 10.5556V20C21.889 20.501 21.69 20.9814 21.3357 21.3357C20.9815 21.6899 20.501 21.8889 20.0001 21.8889ZM10.5556 10.5556V20H20.0001V10.5556H10.5556ZM29.4445 16.2222V20H25.6667V16.2222H29.4445ZM29.4445 14.3334H25.6667C25.1658 14.3334 24.6853 14.5324 24.3311 14.8866C23.9769 15.2408 23.7779 15.7213 23.7779 16.2222V20C23.7779 20.501 23.9769 20.9814 24.3311 21.3357C24.6853 21.6899 25.1658 21.8889 25.6667 21.8889H29.4445C29.9455 21.8889 30.4259 21.6899 30.7802 21.3357C31.1344 20.9814 31.3334 20.501 31.3334 20V16.2222C31.3334 15.7213 31.1344 15.2408 30.7802 14.8866C30.4259 14.5324 29.9455 14.3334 29.4445 14.3334ZM29.4445 25.6667V29.4445H25.6667V25.6667H29.4445ZM29.4445 23.7778H25.6667C25.1658 23.7778 24.6853 23.9768 24.3311 24.331C23.9769 24.6853 23.7779 25.1657 23.7779 25.6667V29.4445C23.7779 29.9454 23.9769 30.4259 24.3311 30.7801C24.6853 31.1343 25.1658 31.3334 25.6667 31.3334H29.4445C29.9455 31.3334 30.4259 31.1343 30.7802 30.7801C31.1344 30.4259 31.3334 29.9454 31.3334 29.4445V25.6667C31.3334 25.1657 31.1344 24.6853 30.7802 24.331C30.4259 23.9768 29.9455 23.7778 29.4445 23.7778ZM20.0001 25.6667V29.4445H16.2223V25.6667H20.0001ZM20.0001 23.7778H16.2223C15.7213 23.7778 15.2409 23.9768 14.8867 24.331C14.5324 24.6853 14.3334 25.1657 14.3334 25.6667V29.4445C14.3334 29.9454 14.5324 30.4259 14.8867 30.7801C15.2409 31.1343 15.7213 31.3334 16.2223 31.3334H20.0001C20.501 31.3334 20.9815 31.1343 21.3357 30.7801C21.69 30.4259 21.889 29.9454 21.889 29.4445V25.6667C21.889 25.1657 21.69 24.6853 21.3357 24.331C20.9815 23.9768 20.501 23.7778 20.0001 23.7778Z" fill="#012D8E"/>
</svg>
