<svg width="23" height="22" viewBox="0 0 23 22" fill="none" xmlns="http://www.w3.org/2000/svg">
<path d="M8.32004 11.2447V19.9375C8.32004 20.0547 8.35003 20.17 8.40714 20.2724C8.46426 20.3748 8.54661 20.4609 8.64637 20.5225C8.74612 20.584 8.85997 20.6191 8.9771 20.6243C9.09422 20.6295 9.21072 20.6046 9.31554 20.5521L13.4405 18.4896C13.5546 18.4325 13.6505 18.3447 13.7175 18.2362C13.7845 18.1276 13.82 18.0026 13.82 17.875V11.2447L19.8522 3.87336C19.9094 3.80348 19.9523 3.72301 19.9785 3.63655C20.0046 3.55008 20.0135 3.45932 20.0045 3.36943C19.9956 3.27954 19.969 3.1923 19.9264 3.11267C19.8837 3.03305 19.8258 2.9626 19.7559 2.90536C19.686 2.84812 19.6056 2.80521 19.5191 2.77907C19.4326 2.75293 19.3419 2.74407 19.252 2.75301C19.1621 2.76195 19.0748 2.7885 18.9952 2.83116C18.9156 2.87381 18.8452 2.93173 18.7879 3.00161L12.6004 10.5641C12.4998 10.6871 12.4449 10.8411 12.445 11V17.4501L9.69504 18.8251V11C9.69517 10.8411 9.64026 10.6871 9.53966 10.5641L4.27066 4.12499H15.195C15.3774 4.12499 15.5522 4.05256 15.6812 3.92362C15.8101 3.79469 15.8825 3.61982 15.8825 3.43749C15.8825 3.25515 15.8101 3.08028 15.6812 2.95135C15.5522 2.82242 15.3774 2.74999 15.195 2.74999H2.82004C2.6898 2.7499 2.56221 2.78681 2.45213 2.85642C2.34206 2.92603 2.25402 3.02548 2.19826 3.14318C2.14251 3.26088 2.12133 3.392 2.1372 3.52127C2.15308 3.65054 2.20534 3.77264 2.28791 3.87336L8.32004 11.2447Z" fill="black"/>
</svg>
