<svg width="22" height="25" viewBox="0 0 22 25" fill="none" xmlns="http://www.w3.org/2000/svg">
<path d="M11 1.00003H2.76806C2.22225 1.00003 1.69879 1.21685 1.31285 1.6028C0.926905 1.98874 0.710083 2.5122 0.710083 3.058V19.5218C0.710083 20.0676 0.926905 20.5911 1.31285 20.977C1.69879 21.363 2.22225 21.5798 2.76806 21.5798H15.1159C15.6617 21.5798 16.1852 21.363 16.5711 20.977C16.957 20.5911 17.1739 20.0676 17.1739 19.5218V7.17395L11 1.00003Z" stroke="black" stroke-linecap="round" stroke-linejoin="round"/>
<path d="M11 1V7.17392H17.1739" stroke="black" stroke-linecap="round" stroke-linejoin="round"/>
<path d="M13.0579 12.3188H4.82605" stroke="black" stroke-linecap="round" stroke-linejoin="round"/>
<path d="M13.0579 16.4348H4.82605" stroke="black" stroke-linecap="round" stroke-linejoin="round"/>
<path d="M6.88402 8.20291H5.85504H4.82605" stroke="black" stroke-linecap="round" stroke-linejoin="round"/>
<rect x="11" y="14.3768" width="10.2899" height="10.2899" rx="5.14494" fill="white"/>
<path d="M18.7558 16.9806C18.605 16.8076 18.4259 16.6703 18.2287 16.5767C18.0316 16.483 17.8203 16.4348 17.6069 16.4348C17.3935 16.4348 17.1822 16.483 16.9851 16.5767C16.7879 16.6703 16.6088 16.8076 16.4579 16.9806L16.1449 17.3396L15.8318 16.9806C15.5271 16.6313 15.1138 16.435 14.6828 16.435C14.2519 16.435 13.8386 16.6313 13.5339 16.9806C13.2292 17.33 13.058 17.8038 13.058 18.2979C13.058 18.792 13.2292 19.2658 13.5339 19.6152L13.847 19.9742L16.1449 22.6087L18.4428 19.9742L18.7558 19.6152C18.9068 19.4423 19.0265 19.2369 19.1082 19.0109C19.1899 18.7848 19.2319 18.5426 19.2319 18.2979C19.2319 18.0533 19.1899 17.811 19.1082 17.585C19.0265 17.359 18.9068 17.1536 18.7558 16.9806Z" stroke="black" stroke-linecap="round" stroke-linejoin="round"/>
</svg>
