<svg width="24" height="24" viewBox="0 0 24 24" fill="none" xmlns="http://www.w3.org/2000/svg">
<path fill-rule="evenodd" clip-rule="evenodd" d="M8.30781 0C8.55262 0 8.7874 0.0972511 8.96051 0.270359C9.13362 0.443467 9.23087 0.678253 9.23087 0.923065V2.77658C11.4295 2.80972 13.6246 2.96215 15.8067 3.23319C15.927 3.24822 16.0432 3.2868 16.1486 3.34674C16.254 3.40667 16.3466 3.48679 16.4211 3.5825C16.4955 3.67821 16.5504 3.78766 16.5826 3.90458C16.6147 4.0215 16.6235 4.14361 16.6085 4.26394C16.5935 4.38427 16.5549 4.50046 16.495 4.60588C16.435 4.7113 16.3549 4.80388 16.2592 4.87834C16.1635 4.95279 16.054 5.00767 15.9371 5.03983C15.8202 5.07199 15.6981 5.08081 15.5778 5.06578C14.7633 4.96379 13.9467 4.87926 13.1286 4.81224C12.4106 7.61314 11.1705 10.2534 9.47332 12.5943C9.86469 13.0669 10.2733 13.5211 10.7041 13.958C10.8658 14.1344 10.9527 14.3668 10.9464 14.6061C10.94 14.8454 10.841 15.0729 10.6701 15.2406C10.4993 15.4082 10.27 15.5029 10.0306 15.5048C9.79125 15.5066 9.56054 15.4153 9.38717 15.2503C9.01409 14.8717 8.6541 14.4805 8.30781 14.0774C6.36496 16.3479 4.00118 18.221 1.34678 19.5936C1.12923 19.7059 0.875979 19.7271 0.642748 19.6527C0.409517 19.5783 0.215407 19.4142 0.103122 19.1967C-0.00916366 18.9791 -0.0304275 18.7259 0.0440079 18.4926C0.118443 18.2594 0.282481 18.0653 0.500034 17.953C3.0521 16.6329 5.31101 14.8106 7.14108 12.5955C6.06725 11.1127 5.174 9.50711 4.48023 7.81282C4.393 7.58737 4.39768 7.3367 4.49328 7.11467C4.58888 6.89264 4.76776 6.71697 4.99149 6.62541C5.21522 6.53386 5.46593 6.53372 5.68975 6.62504C5.91358 6.71635 6.09265 6.89182 6.18849 7.11375C6.75443 8.49512 7.46482 9.81278 8.30781 11.0448C9.63556 9.10432 10.6301 6.95585 11.2505 4.68794C7.84176 4.51889 4.42479 4.6453 1.03786 5.06578C0.794852 5.09614 0.549733 5.02871 0.356432 4.87834C0.16313 4.72796 0.0374809 4.50696 0.00712467 4.26394C-0.0232316 4.02093 0.044192 3.7758 0.194563 3.5825C0.344934 3.3892 0.565935 3.26354 0.808948 3.23319C2.99096 2.9616 5.18616 2.80917 7.38476 2.77658V0.923065C7.38476 0.678253 7.48201 0.443467 7.65512 0.270359C7.82823 0.0972511 8.06301 0 8.30781 0ZM16.6153 8.30758C16.791 8.30751 16.9632 8.35763 17.1114 8.45203C17.2597 8.54644 17.3779 8.68121 17.4522 8.8405L23.9135 22.6865C23.9648 22.7964 23.9938 22.9153 23.9991 23.0364C24.0044 23.1576 23.9858 23.2786 23.9443 23.3925C23.9028 23.5065 23.8393 23.6111 23.7573 23.7005C23.6754 23.7899 23.5767 23.8623 23.4668 23.9135C23.2448 24.017 22.9908 24.0281 22.7607 23.9443C22.5306 23.8605 22.3432 23.6887 22.2397 23.4668L20.7653 20.3074H12.4652L10.9908 23.4668C10.8873 23.6887 10.6999 23.8605 10.4698 23.9443C10.2397 24.0281 9.98573 24.017 9.76377 23.9135C9.54181 23.8101 9.37005 23.6226 9.28627 23.3925C9.20248 23.1624 9.21354 22.9084 9.31702 22.6865L15.7784 8.8405C15.8527 8.68121 15.9709 8.54644 16.1191 8.45203C16.2674 8.35763 16.4395 8.30751 16.6153 8.30758ZM13.3268 18.4613H19.9038L16.6153 11.414L13.3268 18.4613Z" fill="black"/>
</svg>
