<svg width="30" height="30" viewBox="0 0 30 30" fill="none" xmlns="http://www.w3.org/2000/svg">
<g clip-path="url(#clip0_59_860)">
<mask id="mask0_59_860" style="mask-type:luminance" maskUnits="userSpaceOnUse" x="4" y="0" width="20" height="17">
<path d="M11.375 15.231C15.172 15.231 18.25 12.153 18.25 8.35602C18.25 4.55906 15.172 1.48102 11.375 1.48102C7.57804 1.48102 4.5 4.55906 4.5 8.35602C4.5 12.153 7.57804 15.231 11.375 15.231Z" fill="white"/>
<path d="M15.75 16.481C20.2373 16.481 23.875 12.8433 23.875 8.35602C23.875 3.8687 20.2373 0.231018 15.75 0.231018C11.2627 0.231018 7.625 3.8687 7.625 8.35602C7.625 12.8433 11.2627 16.481 15.75 16.481Z" fill="black"/>
</mask>
<g mask="url(#mask0_59_860)">
<path d="M19.5 0.231018H3.25V16.481H19.5V0.231018Z" fill="black"/>
</g>
<mask id="mask1_59_860" style="mask-type:luminance" maskUnits="userSpaceOnUse" x="1" y="-1" width="28" height="28">
<path d="M21.3294 21.097C24.0143 18.4122 24.0143 14.0592 21.3294 11.3743C18.6446 8.68944 14.2916 8.68944 11.6067 11.3743C8.92187 14.0592 8.92187 18.4122 11.6067 21.097C14.2916 23.7819 18.6446 23.7819 21.3294 21.097Z" fill="white"/>
<path d="M24.4419 13.797L22.5669 10.5494L26.2107 10.6107L24.4419 13.797Z" fill="white"/>
<path d="M23.4617 20.7766L24.7442 17.2527L27.0395 20.0834L23.4617 20.7766Z" fill="white"/>
<path d="M17.4849 24.512L21.0087 23.2294L20.3156 26.8072L17.4849 24.512Z" fill="white"/>
<path d="M10.7817 22.3347L14.0293 24.2097L10.843 25.9785L10.7817 22.3347Z" fill="white"/>
<path d="M1.44189 22.4229L24.4229 -0.558059L28.8423 3.86136L5.86131 26.8423L1.44189 22.4229Z" fill="black"/>
<path d="M4.09351 23.3068L23.5389 3.86132" stroke="white" stroke-width="5" stroke-linecap="round"/>
</mask>
<g mask="url(#mask1_59_860)">
<path d="M3.7417 25.4716L28.4904 0.722821L39.9809 12.2133L15.2322 36.962L3.7417 25.4716Z" fill="black"/>
</g>
</g>
<defs>
<clipPath id="clip0_59_860">
<rect width="30" height="30" fill="white"/>
</clipPath>
</defs>
</svg>
