<svg width="26" height="20" viewBox="0 0 26 20" fill="none" xmlns="http://www.w3.org/2000/svg">
<path d="M0.212402 19.3275V18.0775H25.7874V19.3275H0.212402ZM3.76865 16.8275C3.19365 16.8275 2.71365 16.6346 2.32865 16.2488C1.94282 15.8638 1.7499 15.3833 1.7499 14.8075V2.59502C1.7499 2.02002 1.94282 1.54001 2.32865 1.15501C2.71449 0.770015 3.19449 0.577515 3.76865 0.577515H22.2312C22.8062 0.577515 23.2862 0.770015 23.6712 1.15501C24.057 1.54085 24.2499 2.02126 24.2499 2.59626V14.8088C24.2499 15.3838 24.0574 15.8638 23.6724 16.2488C23.2874 16.6338 22.807 16.8267 22.2312 16.8275H3.76865ZM3.76865 15.5775H22.2312C22.4228 15.5775 22.5991 15.4971 22.7599 15.3363C22.9199 15.1763 22.9999 15 22.9999 14.8075V2.59502C22.9999 2.40335 22.9199 2.22751 22.7599 2.06751C22.5991 1.90751 22.4228 1.82751 22.2312 1.82751H3.76865C3.57699 1.82751 3.40074 1.90751 3.2399 2.06751C3.0799 2.22751 2.9999 2.40376 2.9999 2.59626V14.8088C2.9999 15.0004 3.0799 15.1763 3.2399 15.3363C3.40074 15.4971 3.57699 15.5775 3.76865 15.5775Z" fill="black"/>
</svg>
