<svg width="30" height="30" viewBox="0 0 30 30" fill="none" xmlns="http://www.w3.org/2000/svg">
<path d="M16.9313 24.4375L20.7063 25.8125M24.3375 26.3625L23.5438 20.3563L25.5188 14.95C26.1254 13.2965 26.1634 11.488 25.6269 9.81044C25.0903 8.13291 24.0098 6.68211 22.5563 5.68752C22.6012 5.61209 22.6389 5.53257 22.6688 5.45002C22.7912 4.96831 22.7304 4.45832 22.4983 4.01885C22.2661 3.57939 21.8791 3.24174 21.4122 3.07132C20.9453 2.90091 20.4318 2.90986 19.9711 3.09645C19.5105 3.28304 19.1355 3.63398 18.9188 4.08127C18.8893 4.16265 18.8663 4.24625 18.85 4.33127C17.1002 4.16024 15.3431 4.575 13.8545 5.51048C12.3659 6.44596 11.23 7.84921 10.625 9.50002L8.65004 14.95L4.16254 19.0375C4.11334 19.0798 4.0732 19.1317 4.04455 19.1899C4.0159 19.2482 3.99932 19.3116 3.99582 19.3764C3.99232 19.4412 4.00196 19.5061 4.02417 19.567C4.04637 19.628 4.08069 19.6839 4.12504 19.7313C4.17764 19.7948 4.2469 19.8424 4.32504 19.8688L6.55004 20.675L16.9313 24.425C16.7349 24.9223 16.744 25.4772 16.9568 25.9678C17.1695 26.4583 17.5684 26.8442 18.0657 27.0406C18.5629 27.2371 19.1179 27.2279 19.6084 27.0152C20.0989 26.8024 20.4849 26.4035 20.6813 25.9063L20.7188 25.8L21.45 26.0688L23.6625 26.875C23.7821 26.9185 23.9138 26.9142 24.0302 26.863C24.1467 26.8117 24.2389 26.7175 24.2875 26.6C24.324 26.5263 24.3412 26.4446 24.3375 26.3625Z" stroke="black" stroke-linecap="round" stroke-linejoin="round"/>
</svg>
