<svg width="40" height="40" viewBox="0 0 40 40" fill="none" xmlns="http://www.w3.org/2000/svg">
<rect width="40" height="40" rx="20" fill="white" fill-opacity="0.5"/>
<path d="M16.1 14C15.8613 14 15.6324 14.0943 15.4636 14.2621C15.2948 14.4299 15.2 14.6574 15.2 14.8947C15.2 15.132 15.2948 15.3596 15.4636 15.5274C15.6324 15.6952 15.8613 15.7895 16.1 15.7895H25.1C25.3387 15.7895 25.5676 15.6952 25.7364 15.5274C25.9052 15.3596 26 15.132 26 14.8947C26 14.6574 25.9052 14.4299 25.7364 14.2621C25.5676 14.0943 25.3387 14 25.1 14H16.1ZM14 19.6667C14 19.4294 14.0948 19.2018 14.2636 19.034C14.4324 18.8662 14.6613 18.7719 14.9 18.7719H22.7C22.9387 18.7719 23.1676 18.8662 23.3364 19.034C23.5052 19.2018 23.6 19.4294 23.6 19.6667C23.6 19.904 23.5052 20.1315 23.3364 20.2993C23.1676 20.4671 22.9387 20.5614 22.7 20.5614H14.9C14.6613 20.5614 14.4324 20.4671 14.2636 20.2993C14.0948 20.1315 14 19.904 14 19.6667ZM17.3 23.5439C17.0613 23.5439 16.8324 23.6381 16.6636 23.8059C16.4948 23.9737 16.4 24.2013 16.4 24.4386C16.4 24.6759 16.4948 24.9035 16.6636 25.0713C16.8324 25.2391 17.0613 25.3333 17.3 25.3333H25.1C25.3387 25.3333 25.5676 25.2391 25.7364 25.0713C25.9052 24.9035 26 24.6759 26 24.4386C26 24.2013 25.9052 23.9737 25.7364 23.8059C25.5676 23.6381 25.3387 23.5439 25.1 23.5439H17.3Z" fill="#012D8E"/>
<path d="M8 10.1C8 8.9408 8.9408 8 10.1 8H29.9C31.0592 8 32 8.9408 32 10.1V29.9C32 30.457 31.7788 30.9911 31.3849 31.3849C30.9911 31.7788 30.457 32 29.9 32H10.1C9.54305 32 9.0089 31.7788 8.61508 31.3849C8.22125 30.9911 8 30.457 8 29.9V10.1ZM10.1 9.8C10.0204 9.8 9.94413 9.83161 9.88787 9.88787C9.83161 9.94413 9.8 10.0204 9.8 10.1V29.9C9.8 30.0656 9.9344 30.2 10.1 30.2H29.9C29.9796 30.2 30.0559 30.1684 30.1121 30.1121C30.1684 30.0559 30.2 29.9796 30.2 29.9V10.1C30.2 10.0204 30.1684 9.94413 30.1121 9.88787C30.0559 9.83161 29.9796 9.8 29.9 9.8H10.1Z" fill="#012D8E"/>
</svg>
